<mxfile host="Electron" modified="2024-02-10T20:57:25.835Z" agent="Mozilla/5.0 (Windows NT 10.0; Win64; x64) AppleWebKit/537.36 (KHTML, like Gecko) draw.io/23.0.2 Chrome/120.0.6099.109 Electron/28.1.0 Safari/537.36" etag="aht4_YXR4aTjai7aGXqM" version="23.0.2" type="device">
  <diagram name="Страница — 1" id="lwFxoNZVOsWcV77fsAZV">
    <mxGraphModel dx="1221" dy="823" grid="1" gridSize="10" guides="1" tooltips="1" connect="1" arrows="1" fold="1" page="1" pageScale="1" pageWidth="827" pageHeight="1169" math="0" shadow="0">
      <root>
        <mxCell id="0" />
        <mxCell id="1" parent="0" />
        <mxCell id="IgeLQids6hlCfI4V9-Eq-91" value="" style="rounded=1;whiteSpace=wrap;html=1;fillColor=#f5f5f5;strokeColor=#666666;fontColor=#333333;" parent="1" vertex="1">
          <mxGeometry x="180" y="180" width="380" height="640" as="geometry" />
        </mxCell>
        <mxCell id="IgeLQids6hlCfI4V9-Eq-38" value="" style="rounded=1;whiteSpace=wrap;html=1;" parent="1" vertex="1">
          <mxGeometry x="210" y="210" width="330" height="230" as="geometry" />
        </mxCell>
        <mxCell id="IgeLQids6hlCfI4V9-Eq-39" value="&lt;b&gt;Форма входа&lt;/b&gt;" style="text;html=1;strokeColor=none;fillColor=none;align=center;verticalAlign=middle;whiteSpace=wrap;rounded=0;" parent="1" vertex="1">
          <mxGeometry x="327.5" y="210" width="95" height="30" as="geometry" />
        </mxCell>
        <mxCell id="IgeLQids6hlCfI4V9-Eq-40" value="Электронная почта" style="text;html=1;strokeColor=none;fillColor=none;align=center;verticalAlign=middle;whiteSpace=wrap;rounded=0;" parent="1" vertex="1">
          <mxGeometry x="230" y="240" width="110" height="30" as="geometry" />
        </mxCell>
        <mxCell id="IgeLQids6hlCfI4V9-Eq-41" value="&lt;font color=&quot;#999999&quot;&gt;Email&lt;/font&gt;" style="rounded=0;whiteSpace=wrap;html=1;" parent="1" vertex="1">
          <mxGeometry x="230" y="270" width="290" height="30" as="geometry" />
        </mxCell>
        <mxCell id="IgeLQids6hlCfI4V9-Eq-42" value="Пароль" style="text;html=1;strokeColor=none;fillColor=none;align=center;verticalAlign=middle;whiteSpace=wrap;rounded=0;" parent="1" vertex="1">
          <mxGeometry x="230" y="300" width="50" height="30" as="geometry" />
        </mxCell>
        <mxCell id="IgeLQids6hlCfI4V9-Eq-43" value="&lt;font color=&quot;#999999&quot;&gt;Password&lt;/font&gt;" style="rounded=0;whiteSpace=wrap;html=1;" parent="1" vertex="1">
          <mxGeometry x="230" y="330" width="290" height="30" as="geometry" />
        </mxCell>
        <mxCell id="IgeLQids6hlCfI4V9-Eq-44" value="Войти" style="rounded=0;whiteSpace=wrap;html=1;fillColor=#dae8fc;strokeColor=#6c8ebf;" parent="1" vertex="1">
          <mxGeometry x="230" y="370" width="150" height="30" as="geometry" />
        </mxCell>
        <mxCell id="IgeLQids6hlCfI4V9-Eq-45" value="&lt;font color=&quot;#ff0000&quot;&gt;Сообщение об ошибке&lt;/font&gt;" style="text;html=1;strokeColor=none;fillColor=none;align=center;verticalAlign=middle;whiteSpace=wrap;rounded=0;" parent="1" vertex="1">
          <mxGeometry x="230" y="410" width="130" height="30" as="geometry" />
        </mxCell>
        <mxCell id="IgeLQids6hlCfI4V9-Eq-100" value="" style="ellipse;whiteSpace=wrap;html=1;" parent="1" vertex="1">
          <mxGeometry x="365" y="170" width="20" height="20" as="geometry" />
        </mxCell>
        <mxCell id="IgeLQids6hlCfI4V9-Eq-101" value="" style="endArrow=classic;html=1;rounded=1;entryX=0.5;entryY=0;entryDx=0;entryDy=0;curved=0;exitX=0.5;exitY=1;exitDx=0;exitDy=0;" parent="1" source="IgeLQids6hlCfI4V9-Eq-100" target="IgeLQids6hlCfI4V9-Eq-39" edge="1">
          <mxGeometry width="50" height="50" relative="1" as="geometry">
            <mxPoint x="380" y="200" as="sourcePoint" />
            <mxPoint x="210" y="329" as="targetPoint" />
          </mxGeometry>
        </mxCell>
        <mxCell id="IgeLQids6hlCfI4V9-Eq-162" value="&lt;font color=&quot;#0000ff&quot;&gt;Восстановить пароль&lt;/font&gt;" style="text;html=1;strokeColor=none;fillColor=none;align=center;verticalAlign=middle;whiteSpace=wrap;rounded=0;" parent="1" vertex="1">
          <mxGeometry x="396" y="370" width="124" height="30" as="geometry" />
        </mxCell>
        <mxCell id="MYQqMZ2FrlThPKlm4ttI-3" value="Валидация данных (на клиенте)" style="rounded=1;whiteSpace=wrap;html=1;fillColor=#fff2cc;strokeColor=#d6b656;" parent="1" vertex="1">
          <mxGeometry x="235" y="490" width="120" height="60" as="geometry" />
        </mxCell>
        <mxCell id="MYQqMZ2FrlThPKlm4ttI-4" value="" style="endArrow=classic;html=1;rounded=1;exitX=0.5;exitY=1;exitDx=0;exitDy=0;entryX=0.5;entryY=0;entryDx=0;entryDy=0;curved=0;" parent="1" source="IgeLQids6hlCfI4V9-Eq-45" target="MYQqMZ2FrlThPKlm4ttI-3" edge="1">
          <mxGeometry width="50" height="50" relative="1" as="geometry">
            <mxPoint x="550" y="393" as="sourcePoint" />
            <mxPoint x="690" y="393" as="targetPoint" />
          </mxGeometry>
        </mxCell>
        <mxCell id="MYQqMZ2FrlThPKlm4ttI-5" value="Нажали кнопку &quot;Войти&quot;" style="edgeLabel;html=1;align=center;verticalAlign=middle;resizable=0;points=[];" parent="MYQqMZ2FrlThPKlm4ttI-4" vertex="1" connectable="0">
          <mxGeometry x="-0.0186" y="1" relative="1" as="geometry">
            <mxPoint x="59" y="-5" as="offset" />
          </mxGeometry>
        </mxCell>
        <mxCell id="MYQqMZ2FrlThPKlm4ttI-6" value="" style="rhombus;whiteSpace=wrap;html=1;" parent="1" vertex="1">
          <mxGeometry x="443" y="515" width="30" height="10" as="geometry" />
        </mxCell>
        <mxCell id="MYQqMZ2FrlThPKlm4ttI-7" value="" style="endArrow=classic;html=1;rounded=1;entryX=0.75;entryY=1;entryDx=0;entryDy=0;curved=0;exitX=0.5;exitY=0;exitDx=0;exitDy=0;" parent="1" source="MYQqMZ2FrlThPKlm4ttI-6" target="IgeLQids6hlCfI4V9-Eq-38" edge="1">
          <mxGeometry width="50" height="50" relative="1" as="geometry">
            <mxPoint x="705" y="398" as="sourcePoint" />
            <mxPoint x="705" y="480" as="targetPoint" />
          </mxGeometry>
        </mxCell>
        <mxCell id="MYQqMZ2FrlThPKlm4ttI-9" value="" style="endArrow=classic;html=1;rounded=1;curved=0;exitX=1;exitY=0.5;exitDx=0;exitDy=0;entryX=0;entryY=0.5;entryDx=0;entryDy=0;" parent="1" source="MYQqMZ2FrlThPKlm4ttI-3" target="MYQqMZ2FrlThPKlm4ttI-6" edge="1">
          <mxGeometry width="50" height="50" relative="1" as="geometry">
            <mxPoint x="705" y="398" as="sourcePoint" />
            <mxPoint x="705" y="480" as="targetPoint" />
          </mxGeometry>
        </mxCell>
        <mxCell id="MYQqMZ2FrlThPKlm4ttI-11" value="[ошибка]" style="edgeLabel;html=1;align=center;verticalAlign=middle;resizable=0;points=[];" parent="MYQqMZ2FrlThPKlm4ttI-9" vertex="1" connectable="0">
          <mxGeometry x="-0.0606" y="8" relative="1" as="geometry">
            <mxPoint y="-2" as="offset" />
          </mxGeometry>
        </mxCell>
        <mxCell id="MYQqMZ2FrlThPKlm4ttI-12" value="Валидация данных (на сервере)" style="rounded=1;whiteSpace=wrap;html=1;fillColor=#fff2cc;strokeColor=#d6b656;" parent="1" vertex="1">
          <mxGeometry x="235" y="600" width="120" height="60" as="geometry" />
        </mxCell>
        <mxCell id="MYQqMZ2FrlThPKlm4ttI-13" value="" style="endArrow=classic;html=1;rounded=1;exitX=0.5;exitY=1;exitDx=0;exitDy=0;entryX=0.5;entryY=0;entryDx=0;entryDy=0;curved=0;" parent="1" source="MYQqMZ2FrlThPKlm4ttI-3" target="MYQqMZ2FrlThPKlm4ttI-12" edge="1">
          <mxGeometry width="50" height="50" relative="1" as="geometry">
            <mxPoint x="305" y="450" as="sourcePoint" />
            <mxPoint x="305" y="500" as="targetPoint" />
          </mxGeometry>
        </mxCell>
        <mxCell id="MYQqMZ2FrlThPKlm4ttI-14" value="[ok]" style="edgeLabel;html=1;align=center;verticalAlign=middle;resizable=0;points=[];" parent="MYQqMZ2FrlThPKlm4ttI-13" vertex="1" connectable="0">
          <mxGeometry x="-0.0186" y="1" relative="1" as="geometry">
            <mxPoint x="9" y="-5" as="offset" />
          </mxGeometry>
        </mxCell>
        <mxCell id="MYQqMZ2FrlThPKlm4ttI-15" value="" style="endArrow=classic;html=1;rounded=1;curved=0;exitX=1;exitY=0.5;exitDx=0;exitDy=0;entryX=0;entryY=0.5;entryDx=0;entryDy=0;" parent="1" source="MYQqMZ2FrlThPKlm4ttI-12" target="MYQqMZ2FrlThPKlm4ttI-19" edge="1">
          <mxGeometry width="50" height="50" relative="1" as="geometry">
            <mxPoint x="365" y="530" as="sourcePoint" />
            <mxPoint x="453" y="530" as="targetPoint" />
          </mxGeometry>
        </mxCell>
        <mxCell id="MYQqMZ2FrlThPKlm4ttI-17" value="[ошибка]" style="edgeLabel;html=1;align=center;verticalAlign=middle;resizable=0;points=[];" parent="MYQqMZ2FrlThPKlm4ttI-15" vertex="1" connectable="0">
          <mxGeometry x="-0.0606" y="8" relative="1" as="geometry">
            <mxPoint y="-2" as="offset" />
          </mxGeometry>
        </mxCell>
        <mxCell id="MYQqMZ2FrlThPKlm4ttI-19" value="" style="rhombus;whiteSpace=wrap;html=1;" parent="1" vertex="1">
          <mxGeometry x="443" y="625" width="30" height="10" as="geometry" />
        </mxCell>
        <mxCell id="MYQqMZ2FrlThPKlm4ttI-20" value="" style="endArrow=classic;html=1;rounded=1;entryX=0.5;entryY=1;entryDx=0;entryDy=0;curved=0;exitX=0.5;exitY=0;exitDx=0;exitDy=0;" parent="1" source="MYQqMZ2FrlThPKlm4ttI-19" target="MYQqMZ2FrlThPKlm4ttI-6" edge="1">
          <mxGeometry width="50" height="50" relative="1" as="geometry">
            <mxPoint x="468" y="525" as="sourcePoint" />
            <mxPoint x="468" y="450" as="targetPoint" />
          </mxGeometry>
        </mxCell>
        <mxCell id="MYQqMZ2FrlThPKlm4ttI-21" value="Проверка учётной запись пользователя" style="rounded=1;whiteSpace=wrap;html=1;fillColor=#fff2cc;strokeColor=#d6b656;" parent="1" vertex="1">
          <mxGeometry x="235" y="710" width="120" height="60" as="geometry" />
        </mxCell>
        <mxCell id="MYQqMZ2FrlThPKlm4ttI-22" value="" style="endArrow=classic;html=1;rounded=1;exitX=0.5;exitY=1;exitDx=0;exitDy=0;entryX=0.5;entryY=0;entryDx=0;entryDy=0;curved=0;" parent="1" source="MYQqMZ2FrlThPKlm4ttI-12" target="MYQqMZ2FrlThPKlm4ttI-21" edge="1">
          <mxGeometry width="50" height="50" relative="1" as="geometry">
            <mxPoint x="305" y="560" as="sourcePoint" />
            <mxPoint x="305" y="610" as="targetPoint" />
          </mxGeometry>
        </mxCell>
        <mxCell id="MYQqMZ2FrlThPKlm4ttI-23" value="[ok]" style="edgeLabel;html=1;align=center;verticalAlign=middle;resizable=0;points=[];" parent="MYQqMZ2FrlThPKlm4ttI-22" vertex="1" connectable="0">
          <mxGeometry x="-0.0186" y="1" relative="1" as="geometry">
            <mxPoint x="9" y="-5" as="offset" />
          </mxGeometry>
        </mxCell>
        <mxCell id="MYQqMZ2FrlThPKlm4ttI-24" value="" style="endArrow=classic;html=1;rounded=1;curved=0;exitX=1;exitY=0.5;exitDx=0;exitDy=0;entryX=0.5;entryY=1;entryDx=0;entryDy=0;" parent="1" source="MYQqMZ2FrlThPKlm4ttI-21" target="MYQqMZ2FrlThPKlm4ttI-19" edge="1">
          <mxGeometry width="50" height="50" relative="1" as="geometry">
            <mxPoint x="365" y="640" as="sourcePoint" />
            <mxPoint x="453" y="640" as="targetPoint" />
            <Array as="points">
              <mxPoint x="460" y="740" />
            </Array>
          </mxGeometry>
        </mxCell>
        <mxCell id="MYQqMZ2FrlThPKlm4ttI-26" value="[ошибка]" style="edgeLabel;html=1;align=center;verticalAlign=middle;resizable=0;points=[];" parent="MYQqMZ2FrlThPKlm4ttI-24" vertex="1" connectable="0">
          <mxGeometry x="-0.0606" y="8" relative="1" as="geometry">
            <mxPoint x="-58" y="-5" as="offset" />
          </mxGeometry>
        </mxCell>
        <mxCell id="MYQqMZ2FrlThPKlm4ttI-27" value="" style="shape=sumEllipse;perimeter=ellipsePerimeter;html=1;backgroundOutline=1;" parent="1" vertex="1">
          <mxGeometry x="285" y="810" width="20" height="20" as="geometry" />
        </mxCell>
        <mxCell id="MYQqMZ2FrlThPKlm4ttI-31" value="" style="endArrow=classic;html=1;rounded=1;exitX=0.5;exitY=1;exitDx=0;exitDy=0;entryX=0.5;entryY=0;entryDx=0;entryDy=0;curved=0;" parent="1" source="MYQqMZ2FrlThPKlm4ttI-21" target="MYQqMZ2FrlThPKlm4ttI-27" edge="1">
          <mxGeometry width="50" height="50" relative="1" as="geometry">
            <mxPoint x="305" y="670" as="sourcePoint" />
            <mxPoint x="305" y="720" as="targetPoint" />
          </mxGeometry>
        </mxCell>
        <mxCell id="MYQqMZ2FrlThPKlm4ttI-32" value="[ok]" style="edgeLabel;html=1;align=center;verticalAlign=middle;resizable=0;points=[];" parent="MYQqMZ2FrlThPKlm4ttI-31" vertex="1" connectable="0">
          <mxGeometry x="-0.0186" y="1" relative="1" as="geometry">
            <mxPoint x="9" y="-5" as="offset" />
          </mxGeometry>
        </mxCell>
      </root>
    </mxGraphModel>
  </diagram>
</mxfile>
